<?xml version="1.0" encoding="UTF-8"?>
<!DOCTYPE svg PUBLIC "-//W3C//DTD SVG 1.1//EN" "http://www.w3.org/Graphics/SVG/1.1/DTD/svg11.dtd">
<svg version="1.1" xmlns="http://www.w3.org/2000/svg" xmlns:xlink="http://www.w3.org/1999/xlink" x="0" y="0" width="624.481" height="299.497" viewBox="0, 0, 624.481, 299.497">
  <g id="Layer_1" transform="translate(-33.645, -299.719)">
    <path d="M439.136,478.666 C425.251,549.094 363.742,598.313 292.519,599.216 C251.229,599.301 213.795,582.33 184.856,553.343 C271.161,536.076 356.512,508.937 439.136,478.666 z" fill="#000000" opacity="0.37"/>
    <path d="M292.519,299.719 C361.414,299.595 424.716,349.663 438.588,417.588 C375.998,446.135 309.801,466.218 243.495,484.145 C213.892,492.149 183.988,499.902 153.78,505.308 C146.417,487.644 143.257,468.523 143.017,449.467 C143.017,366.764 209.951,299.719 292.519,299.719 z" fill="#000000" opacity="0.37"/>
    <path d="M132.44,443.983 C132.44,443.983 42.136,477.555 35.549,510.277 C35.974,510.277 58.71,513.464 58.922,513.251 C61.684,492.853 133.077,463.106 133.077,463.106 L132.44,443.983 z" fill="#000000" opacity="0.346"/>
    <path d="M33.649,520.185 C147.376,555.873 492.46,410.18 492.46,410.18 L504.655,437.917 C504.655,437.917 175.158,582.341 41.734,546.474 C41.973,546.474 33.435,520.118 33.649,520.185 z" fill="#000000" opacity="0.521"/>
    <path d="M528.301,336.398 C538.462,333.658 548.368,339.797 556.728,344.911 C560.542,347.298 575.449,360 580.132,358.366 C594.283,353.615 608.563,348.654 623.422,346.63 C631.72,345.499 640.777,345.204 648.566,348.792 C650.639,349.676 652.431,351.025 654.167,352.433 C656.98,354.926 658.265,358.441 658.115,362.143 C656.852,375.012 646.096,384.15 636.241,391.174 C625.467,398.676 613.716,404.692 601.986,410.527 C597.537,412.719 596.136,432.253 595.163,436.646 C591.628,452.603 584.886,472.093 565.152,460.634 C560.477,457.919 556.292,454.362 552.402,450.636 C548.436,446.836 544.72,442.777 541.172,438.588 L540.848,438.282 C539.184,436.791 536.786,436.828 534.688,436.991 C529.417,437.784 523.479,440.704 518.521,437.904 C510.845,433.69 507.944,428.598 504.367,420.773 L504.367,420.773 L504.365,420.768 L504.363,420.765 L504.364,420.765 C500.955,412.758 500.021,407.002 502.079,398.66 C503.561,393.163 509.806,390.979 514.068,387.777 C515.656,386.396 517.364,384.712 517.469,382.481 L517.478,382.035 C516.98,376.568 516.693,371.072 516.766,365.58 C516.838,360.194 517.238,354.717 518.581,349.48 C519.814,344.884 521.835,340.111 526.046,337.485 C526.754,337.044 527.549,336.76 528.301,336.398 z" fill="#000000" opacity="0.735"/>
  </g>
</svg>
